<svg class="svg-Logo" viewBox="0 0 149.2 130.2" xmlns="http://www.w3.org/2000/svg" data-v-03277165="" id="Layer_1">
	<style data-v-03277165="">.st0{fill:#000a15}.st4{fill:#0583a9}.st5{fill:#01495f}.st6{fill:#fff}.st7{fill:#977949}.st8{fill:#674d24}</style>
	<path d="M145.5 36.3s-4.7-4.8-9.2-7.2l-1.6 2.2v.1c1 5 2.3 12.8 2.7 15.4-.5 1.3-2.6 5.8-3.3 7.3v11.1s-.7.6-1.6 1.5c-.6-2.6-2.4-8.6-2.4-8.6 2.3-.6 2.3-2.5 2.3-4.6v-5.3c0-1.3-.4-2.6-1.2-3.6-.1-.1-.3-.3-.6-.5-.9-.9-1.8-1.6-1.9-1.7-.9-.6-1.4-.8-2.7-.8h-2.7V26.4l4.8-4.8.4-.4-.4-.3c-4.1-2.8-12.1-7-17.5-9.2-.5-.8-2.1-3.4-2.2-3.5l-.1-.1h-.1c-.1-.1-10.5-5.7-33.6-5.7S41.2 8 41.1 8.1H41l-.1.1c-.1.1-1.7 2.7-2.2 3.5-5.4 2.3-13.4 6.4-17.5 9.2l-.4.3.4.4 4.8 4.8v15.1h-3.2c-2.5 0-5.2 1.9-5.2 6.1v11.3c0 1.1.3 4.4 1 5.5 1.5 1.6 4.4 3.9 5.9 3.9H26v1.6c0-.1-3.5 2.1-3.5 2.2l-6.8-6.8V54.2c-.7-1.5-2.8-6.1-3.3-7.3.4-2.5 1.7-10.4 2.7-15.4v-.1l-1.6-2.2c-4.5 2.4-9.2 7.2-9.2 7.2S0 57.8 7 82.2a59 59 0 0 0 16.1 19.2c2.5-1.3 7.2-3.8 8.9-4.6 19.1 19.1 37.7 31.5 43.2 31.5 5.1 0 23.7-12.4 42.8-31.5 1.7.8 6.4 3.3 8.9 4.6 10.8-8.3 16.1-19.2 16.1-19.2 6.9-24.5 2.5-45.9 2.5-45.9zM127.2 72l-4-2.7v-1.1h7.7c-1.8 1.9-3.7 3.8-3.7 3.8z" class="st0" data-v-03277165=""></path>
	<path d="M74.8 4.2s-16.9 0-32 5.4c-.4.8-1.6 2.3-2 3.6-6 2.8-10.3 4.9-16 8.3 0 .2 3.3 3.3 3.6 3.6 0 .7.2 48.1.2 62.5 11.1 16.4 41.5 37.6 46.2 37.6V4.2z" class="st0" data-v-03277165="" id="badge_BG"></path>
	<path d="M74.8 123c0-7.4.1-106 .1-118.5l.2-.1c12 0 21.3 2.1 30.4 5.2 0 .6-.1 1.5-.1 1.7l-.8 4.2c2.3.7 10.2 4.5 13.3 6.5-.2.3-2.5 2.5-2.7 2.7v65c-12.3 14.6-28.1 27.5-40.4 33.3z" data-v-03277165="" id="lightSide" fill="#00111e"></path>
	<path d="M42.2 90.2V60.1h-2.3v31.6c4.1 5.1 11.4 12.2 20 17.4v-1c-7.5-5.4-14.6-13.2-17.7-17.9zM57.6 19c-8.4 1.7-12 4.1-17.9 7.5v2.9l2.8-.4c0-.4-.2-.9-.2-1.2 3.5-2.9 9.9-6.2 15.2-8.1 0 .1.2-.7.1-.7z" class="st0" data-v-03277165="" id="Ellipse_1_copy_9"></path>
	<path d="M40 82.7V68.3h-2.7c0 2.6-.1 15.1.1 15.8 4.1 5.1 12.2 14.1 20.1 19.9v-1C50.4 97.2 43.1 87.4 40 82.7zm5.3-58.1c-2.4 1.1-5.5 2.9-8.1 4.4v11.4H40V30.1c1.3-1.1 3.8-2.5 5.7-3.6-.2-.5-.2-1.3-.4-1.9z" data-v-03277165="" id="Ellipse_1_copy_8" fill="#011e34"></path>
	<path d="M109.5 82.9V68.4h2.7c0 2.6.1 15.1-.1 15.8-4.1 5.1-12.2 14.2-20.2 19.9v-1c7.1-5.8 14.4-15.6 17.6-20.2zm-5.4-58.2c2.4 1.1 5.5 2.9 8.1 4.4v11.4h-2.7V30.2c-1.3-1.1-3.8-2.5-5.7-3.6.1-.5.1-1.4.3-1.9z" data-v-03277165="" id="Ellipse_1_copy_10" fill="#012947"></path>
	<g data-v-03277165="" id="BLUE">
		<path d="M31.6 40.4h2.7V28.9c-.4-.3-2.7-2.5-2.7-2.7v14.2z" class="st4" data-v-03277165="" id="pillar_l_shade"></path>
		<path d="M28.5 25.1v15.3h3.2V26.2c-.4-.1-3-1-3.2-1.1z" class="st5" data-v-03277165="" id="pillar_l_light"></path>
		<path d="M26.7 23.6s1.7 1.6 1.7 1.7c.2.1 2.7 1 3.2 1.1 4.1-2.5 8.4-4.6 12.9-6.4-.2-1.1-.7-4.2-.6-4.2-3.4 1.1-8 2.3-17.2 7.8z" class="st5" data-v-03277165="" id="top_L_shade"></path>
		<path d="M122.3 23.6s-1.5 1.4-1.5 1.5c-.2.1-2.4 1.2-3 1.4-4.1-2.5-8.8-4.6-13.3-6.4.2-1.1.7-4.2.6-4.2 3.4 1 8 2.2 17.2 7.7z" class="st5" data-v-03277165="" id="top_L_shade_copy"></path>
		<path d="M74.6 6.2c-10.9 0-22.1 1.8-31.7 5.2-.3.1-.4 3.2-.1 3.1 9.5-3.4 21-5.6 31.8-5.6V6.2zm0 0c10.9 0 22.1 1.8 31.7 5.2.3.1.4 3.2.1 3.1-9.5-3.4-21-5.5-31.8-5.5V6.2z" class="st5" data-v-03277165="" id="TOP_ARCH_SHADE"></path>
		<path d="M74.6 6.9c-10 0-20.6 1.6-29.6 4.5-.5.9-1.1 1.9-1.4 2.4.2 1.1.3 2 .3 2-6.9 1.6-17.1 7.7-17.2 7.7 0-.1-2.1-2-2-2 1.2-.9 2.7-2 4.2-2.7 3.8-2.3 7.7-4.2 11.7-5.9.7-1.3 1.4-2.6 2.2-3.8v.1c9.7-3.2 20.9-5 31.8-5v2.7zm0 0c10 0 20.4 1.6 29.4 4.5.5.9 1.1 1.9 1.4 2.4-.2 1.1-.3 2-.3 2 6.9 1.6 17.1 7.7 17.2 7.7 0-.1 2.1-2 2-2-1.2-.9-2.7-2-4.2-2.7-3.8-2.2-7.7-4.2-11.7-5.8-.7-1.3-1.4-2.6-2.2-3.8v.1c-9.6-3.4-20.6-5.2-31.5-5.2-.1.9-.1 1.7-.1 2.8z" class="st4" data-v-03277165="" id="TOP_ARCH"></path>
		<path d="M31.9 68.6h2.7v16.9l-2.7.9V68.6z" class="st4" data-v-03277165="" id="pillar_l_2_shade"></path>
		<path d="M28.5 87.2V68.6h3.4v18c-.9.1-3.2.8-3.4.6z" class="st5" data-v-03277165="" id="pillar_l_2_light"></path>
		<path d="M74.8 118.3s-18.7-7.6-40.2-33.1c-.4.2-1.8.6-3 1.1 14.1 18.8 36.4 33.7 43.2 36v-4z" class="st5" data-v-03277165="" id="btm_arch_l_shade"></path>
		<path d="M74.8 122.3s-24.4-11.7-43-36c-.5.1-3 .8-3.4.9 13.3 19.7 42 38.3 46.4 38.3v-3.2z" class="st4" data-v-03277165="" id="btm_arch_l_light"></path>
		<path d="M117.8 68.6h-2.7v16.9l2.7.9V68.6z" class="st5" data-v-03277165="" id="pillar_l_2_shade_copy"></path>
		<path d="M121.2 87.2V68.6h-3.4v18c.9.1 3.2.8 3.4.6z" class="st4" data-v-03277165="" id="pillar_l_2_light_copy"></path>
		<path d="M74.8 118.3s18.7-7.6 40.2-33.1c.4.2 1.8.6 3 1.1-14.1 18.8-36.4 33.7-43.2 36v-4z" class="st4" data-v-03277165="" id="btm_arch_l_shade_copy"></path>
		<path d="M74.8 122.3s24.4-11.7 43-36c.5.1 3 .8 3.4.9-13.3 19.7-42 38.3-46.4 38.3v-3.2z" class="st5" data-v-03277165="" id="btm_arch_l_light_copy"></path>
		<path d="M117.8 40.4h-2.7V28.9c.4-.3 2.5-2.5 2.7-2.7v14.2z" class="st5" data-v-03277165="" id="pillar_l_shade_copy"></path>
		<path d="M121 24.9v15.5h-3.2V26.2c.4-.1 3-1.2 3.2-1.3z" class="st4" data-v-03277165="" id="pillar_l_light_copy"></path>
	</g>
	<path d="M70.7 15.5l.7 1.8H70l.7-1.8zm-1.9 4.8l.9-2.3h2.1l.9 2.3h1.7l-.7-.6-2.3-5.4h-1.8l.5.5-2.3 5.5h1zM80.2 18c0 .6 0 1.2.5 1.8.5.5 1.1.7 1.7.7.6 0 1.2-.2 1.6-.5v.4h1.7l-.5-.6V15l.5-.6H84v4.1c0 .7-.5 1.3-1.4 1.3-.9 0-1.3-.5-1.3-1.6v-3.7h-1.7l.5.6.1 2.9zm6.5 1.5l-.6.7h4.1l.7-.9h-3v-1.9h1.5v-.9h-1.5v-1.4H90l.4.5v-1.4h-4.3l.6.7v4.6zm-9.3.9c.7 0 1.5-.1 2.2-.3V17h-1.7l.6.7v1.6c-.4.1-.8.1-1.2.1-1.4 0-2.5-1-2.5-2.4 0-1.3 1-2.2 2.4-2.2 1.3 0 1.8.5 1.8.5v-1.2c-.5-.1-1-.2-1.5-.2-2.3 0-3.9 1.3-3.9 3.2 0 2.1 1.5 3.3 3.8 3.3m-19-.1h3.8l.7-.9h-2.8v-5.7h-1.7l.6.7v5.3l-.6.6zm5.1-.8l-.6.7h4.3l.4-.9h-2.9v-1.9h1.5v-.9h-1.5v-1.4h2.1l.4.5v-1.4h-4.3l.6.7v4.6zM86 27.2h-.6v-4.8h.8c1.6 0 2.5.9 2.5 2.5 0 1.7-1.4 2.3-2.7 2.3m.3-5.7h-2.8l.7.8v5.1l-.7.8h2.7c2.3 0 3.8-1.4 3.8-3.4.1-2.1-1.4-3.3-3.7-3.3M54.8 21v-1h-2.2l.7.9v7.8l-.7.9h4.5l1.1-1.3h-3.4V21zm39.1 3c-1.1-.5-2.1-.9-2.1-1.7 0-.8.9-1.1 1.7-1.1.8 0 1.6.3 2.2.8l.2.2v-1.9h-.1c-.7-.2-1.4-.3-2.2-.3-2.1 0-3.4.9-3.4 2.5s1.5 2.3 2.8 2.8c1.1.5 2.1.9 2.1 1.8s-1.1 1.3-1.9 1.3c-1.1 0-2.2-.4-3.1-1.1l-.3-.2.5 2.1h.1c.8.3 1.7.4 2.6.4 2.4 0 3.7-1.5 3.7-2.9 0-1.5-1.5-2.1-2.8-2.7m-21.2 3.1V25h1.7v-1h-1.7v-1.6h2.4l.5.6v-1.6h-4.8l.7.8v5l-.7.8h4.5l.8-1-3.4.1zm-9.4 0h-3V25H62v-1h-1.7v-1.6h2.3l.5.6v-1.6h-4.7l.7.8v5l-.7.8h6c-.4-.1-.8-.5-1.1-.9m5.7-2.4h-.7l.7.8v1.8c-.4.1-.9.2-1.3.2-1.6 0-2.8-1.2-2.8-2.7 0-1.5 1.1-2.5 2.7-2.5.4 0 1.5 0 1.9.6v-1.4h-.1c-.5-.1-1.1-.2-1.6-.2-2.6 0-4.3 1.4-4.3 3.6 0 2.1 1.7 3.5 4.3 3.5.8 0 1.6-.1 2.4-.3h.1v-3.4H69zm21.9-6.6c-.2 0-.4-.2-.4-.4s.1-.4.3-.4c.2 0 .4.2.4.4.1.2 0 .4-.3.4.1 0 0 0 0 0m0-1c-.4 0-.7.3-.7.7 0 .4.3.7.7.7.4 0 .7-.3.7-.7 0-.4-.3-.7-.7-.7m1.2.5v-.2h.3l.2.1-.1-.4h-.8l.2.2v.9l-.2.2h.5v-.6h.5l-.1-.2h-.5zm-10.7 7.5l-3.6-3.6h-1.7l.5.7v5.2l-.7.8H78v-4.9l4.7 4.8v-6l.7-.7h-1.9l-.1 3.7zm16-3.9h-.2V21h.1s.1 0 .1.1v.1m.2.5c0-.2 0-.2-.1-.3h-.1.1s.1-.1.1-.2 0-.2-.1-.2H97v.8h.2v-.3h.1l.1.1v.2l.2-.1m.1 0c-.2.2-.6.2-.8 0-.2-.2-.2-.6 0-.9.1-.1.3-.2.4-.2s.3.1.4.2c.3.3.3.7 0 .9m.1-.9c-.3-.3-.7-.3-1 0-.1.1-.2.3-.2.5s.1.4.2.5c.3.3.7.3 1 0 .3-.3.3-.7 0-1" class="st6" data-v-03277165="" id="LOL_LOGO"></path>
	<path d="M25.4 63.2V48.5H30v14.7h-4.6zm7.7 0V48.5c0-1.6-1.4-2.9-3.1-2.9h-4.6c-1.7 0-3.1 1.3-3.1 2.9v14.7c0 1.6 1.4 2.9 3.1 2.9H30c1.7 0 3.1-1.3 3.1-2.9zm6.8-9.3v-5.6H44v5.6h-4.1zm6.7-5.6c0-1.4-1.2-2.6-2.7-2.6h-6.8v18h2.7v-7.2h4.1c1.5 0 2.7-1.1 2.7-2.6v-5.6zm11.5 12.8h-5.4v-5.6h4.1v-2.6h-4.1v-4.6h5.4v-2.6H50v18h8.1v-2.6zm12.8-15.3h-2.7v10.6l-3.8-10.6h-2.9v18h2.7V52l4.4 11.7H71l-.1-17.9zm18.9 0h-9.5v2.6h3.4v15.4h2.7V48.3h3.4v-2.5zm5.8 15.3V48.3h4.1v12.8h-4.1zm6.7 0V48.3c0-1.4-1.2-2.6-2.7-2.6h-4.1a2.6 2.6 0 0 0-2.7 2.6v12.8c0 1.4 1.2 2.6 2.7 2.6h4.1c1.5 0 2.7-1.2 2.7-2.6zm13.2-15.3h-2.7v15.4h-4.1V45.7H106v15.4c0 1.4 1.2 2.6 2.7 2.6h4.1c1.5 0 2.7-1.1 2.7-2.6V45.8zm7 9.2v-6.4h4.6V55h-4.6zm5.3 2.7c1.6-.3 2.4-1.2 2.4-2.8v-6.4c0-1.6-1.4-2.9-3.1-2.9h-7.7v20.5h3.1v-8.2h2.4l2 8.2h3.3l-2.4-8.4z" class="st5" data-v-03277165="" id="open_tour"></path>
	<path d="M24.7 62.5V47.8h4.6v14.7h-4.6zm7.7 0V47.8c0-1.6-1.4-2.9-3.1-2.9h-4.6c-1.7 0-3.1 1.3-3.1 2.9v14.7c0 1.6 1.4 2.9 3.1 2.9h4.6c1.7 0 3.1-1.3 3.1-2.9zm6.8-9.3v-5.6h4.1v5.6h-4.1zm6.7-5.6c0-1.4-1.2-2.6-2.7-2.6h-6.8v18h2.7v-7.2h4.1c1.5 0 2.7-1.1 2.7-2.6v-5.6zm11.5 12.8H52v-5.6h4v-2.6h-4v-4.6h5.4V45h-8.1v18h8.1v-2.6zm12.8-15.3h-2.7v10.6l-3.8-10.6h-2.9v18h2.7V51.3L67.8 63h2.4V45.1zm18.9 0h-9.5v2.6H83V63h2.7V47.6h3.4v-2.5zm5.8 15.3V47.6H99v12.8h-4.1zm6.7 0V47.6c0-1.4-1.2-2.6-2.7-2.6h-4.1a2.6 2.6 0 0 0-2.7 2.6v12.8c0 1.4 1.2 2.6 2.7 2.6h4.1c1.5 0 2.7-1.2 2.7-2.6zm13.2-15.3h-2.7v15.4H108V45.1h-2.7v15.4c0 1.4 1.2 2.6 2.7 2.6h4.1c1.5 0 2.7-1.1 2.7-2.6V45.1zm7 9.1v-6.4h4.6v6.4h-4.6zM127 57c1.6-.3 2.4-1.2 2.4-2.8v-6.4c0-1.6-1.4-2.9-3.1-2.9h-7.7v20.5h3.1v-8.2h2.4l2 8.2h3.3L127 57z" class="st0" data-v-03277165="" id="open_tour-2"></path>
	<path d="M23.5 61.3V46.6h4.6v14.7h-4.6zm7.7 0V46.6c0-1.6-1.4-2.9-3.1-2.9h-4.6c-1.7 0-3.1 1.3-3.1 2.9v14.7c0 1.6 1.4 2.9 3.1 2.9h4.6c1.7 0 3.1-1.3 3.1-2.9zm6.7-9.2v-5.6H42v5.6h-4.1zm6.8-5.7c0-1.4-1.2-2.6-2.7-2.6h-6.8v18h2.7v-7.2H42c1.5 0 2.7-1.1 2.7-2.6v-5.6zm11.5 12.8h-5.4v-5.6h4.1V51h-4.1v-4.6h5.4v-2.6h-8.1v18h8.1v-2.6zM69 43.8h-2.7v10.6l-3.8-10.6h-2.9v18h2.7V50.1l4.4 11.7H69v-18zm18.9 0h-9.5v2.6h3.4v15.4h2.7V46.4h3.4v-2.6zm5.8 15.4V46.4h4.1v12.8h-4.1zm6.7 0V46.4c0-1.4-1.2-2.6-2.7-2.6h-4.1a2.6 2.6 0 0 0-2.7 2.6v12.8c0 1.4 1.2 2.6 2.7 2.6h4.1c1.5 0 2.7-1.1 2.7-2.6zm13.2-15.4h-2.7v15.4h-4.1V43.8h-2.7v15.4c0 1.4 1.2 2.6 2.7 2.6h4.1c1.5 0 2.7-1.1 2.7-2.6V43.8zm7 9.2v-6.4h4.6V53h-4.6zm5.2 2.8c1.6-.3 2.4-1.2 2.4-2.8v-6.4c0-1.6-1.4-2.9-3.1-2.9h-7.7v20.5h3.1V56h2.4l2 8.2h3.3l-2.4-8.4z" class="st6" data-v-03277165="" id="open_tour_copy_2"></path>
	<path d="M63.4 79.7h-4v8.8h1.3v-4h2v-1.3h-2v-2.3h2.6v-1.2h.1zm2.3 4v-2.8h2v2.8h-2zm2.2 1.2c.7-.1 1-.5 1-1.2v-2.8c0-.7-.6-1.3-1.3-1.3h-3.3v8.8h1.3v-3.5h1l.9 3.5H69l-1.1-3.5zm3.4 1.1l.9-4.1.9 4.1h-1.8zm1.8-6.3h-1.7l-2 8.8h1.4l.3-1.3h2.3l.3 1.3h1.4l-2-8.8zm7.4 0h-1.3v5.2l-1.9-5.2h-1.4v8.8h1.3v-5.7l2.1 5.8h1.2v-8.9zm5.9 6.3h-1.3v1.3h-2V81h2v1.3h1.3V81c0-.7-.6-1.3-1.3-1.3h-2c-.7 0-1.3.5-1.3 1.3v6.3c0 .7.6 1.3 1.3 1.3h2c.7 0 1.3-.5 1.3-1.3V86zm5.3 1.2H89v-2.8h2v-1.3h-2v-2.3h2.7v-1.3h-4v8.8h4v-1.1z" class="st0" data-v-03277165="" id="france_copy_5"></path>
	<path d="M62.7 79h-4v8.8H60v-4h2v-1.3h-2v-2.3h2.6V79h.1zm2.3 4v-2.8h2V83h-2zm2.3 1.2c.7-.1 1-.5 1-1.2v-2.8c0-.7-.6-1.3-1.3-1.3h-3.3v8.8H65v-3.5h1l.9 3.5h1.4l-1-3.5zm3.4 1.1l.9-4.1.9 4.1h-1.8zm1.7-6.3h-1.7l-2 8.8h1.4l.3-1.3h2.3l.3 1.3h1.4l-2-8.8zm7.4 0h-1.3v5.2L76.6 79h-1.4v8.8h1.3v-5.7l2.1 5.8h1.2V79zm6 6.3h-1.3v1.3h-2v-6.3h2v1.3h1.3v-1.3c0-.7-.6-1.3-1.3-1.3h-2c-.7 0-1.3.5-1.3 1.3v6.3c0 .7.6 1.3 1.3 1.3h2c.7 0 1.3-.5 1.3-1.3v-1.3zm5.3 1.3h-2.7v-2.8h2v-1.3h-2v-2.3h2.7V79h-4v8.8h4v-1.2z" class="st4" data-v-03277165="" id="france_copy"></path>
	<g data-v-03277165="" id="WINGS">
		<g data-v-03277165="" id="WING_L">
			<path d="M22.6 89.9v-6.1c-.9-.9-6-5.7-7.2-7v6.3c0 .1 6.3 5.9 7.2 6.8zm0-15.3c-.2-.1-6.1-5.4-7.2-6.8v6.3c.5.5 4.8 4.7 7.2 7 0 .1.2-6.5 0-6.5zm-7.2 16.9v-5.9c1.6 1.8 5.5 5.4 7.2 7.2v6c-1.1-1.3-6.2-6.1-7.2-7.3zm-8.1-20c-.4-.5-1-.8-.9.5.4 2.5 1.4 7.3 2 9 .8 1.7 2.9 4.6 5.2 7.4v-8.8c-.2-.3-6.7-8.6-6.3-8.1zM5.8 55.7c-.4-.7-1.2-.7-1.2.5 0 1.7.4 5.7.5 7.7.1.9.4 1.7.9 2.5 0 .1 6.2 8.3 7.7 10.1V69c-.2-.3-7.9-13.3-7.9-13.3zm.9-14.6c-.9-2-1.5-.2-1.6.3-.1 1.5-.2 3-.2 4.4v3.8c0 .1 0 .3.1.4 1.2 2.1 8.3 14.6 8.6 15.1V56c0-.1-3.9-8.2-6.9-14.9zm6.1-7.4c.2-1.4-.6-1-1.3-.5-.3.2-2.7 2.2-4 3.2-.3.2-.4.6-.3 1 1 2.3 2.5 5.5 3.4 7.6.3-2.1 1.4-7.7 2.2-11.3z" class="st7" data-v-03277165="" id="WING_L_copy_8"></path>
			<path d="M22.6 74.4c.1-.1 3.6-2.2 4.1-2.5v7s-4 2.3-4.1 2.3c0-.7.1-6.9 0-6.8z" class="st8" data-v-03277165="" id="WING_L_copy_7"></path>
			<path d="M22.6 83.9c.1-.1 4-2.5 4.1-2.5v6.2s-4 2.4-4.1 2.3c0-.7.1-6.2 0-6z" class="st8" data-v-03277165="" id="WING_L_copy_9"></path>
			<path d="M22.6 92.6l4.7-2.7c1.1 1.5 2.2 2.9 3.4 4.3 0 0-8 4.5-8.1 4.5v-6.1z" class="st8" data-v-03277165="" id="WING_L_copy_12"></path>
		</g>
		<g data-v-03277165="" id="WING_L_copy_14">
			<path d="M127.1 89.9v-6.1c.9-.9 6-5.7 7.2-7v6.3c0 .1-6.3 5.9-7.2 6.8zm0-15.3c.2-.1 6.1-5.4 7.2-6.8v6.3c-.5.5-4.8 4.7-7.2 7 0 .1-.2-6.5 0-6.5zm7.2 16.9v-5.9c-1.6 1.8-5.5 5.4-7.2 7.2v6c1.1-1.3 6.2-6.1 7.2-7.3zm8.1-20c.4-.5 1-.8.9.5-.4 2.5-1.4 7.3-2 9-.8 1.7-2.9 4.6-5.2 7.4v-8.8c.2-.3 6.7-8.6 6.3-8.1zm1.5-15.8c.4-.7 1.1-.7 1.1.5 0 1.7-.4 5.7-.5 7.7-.1.9-.4 1.7-.9 2.5 0 .1-6.2 8.3-7.7 10.1V69c.3-.3 8-13.3 8-13.3zm-.9-14.6c.9-2 1.5-.2 1.6.3.1 1.5.2 3 .2 4.4v3.8c0 .1 0 .3-.1.4-1.2 2.1-8.3 14.6-8.6 15.1v-9.2s3.9-8.1 6.9-14.8zm-6.1-7.4c-.2-1.4.6-1 1.3-.5.3.2 2.7 2.2 4 3.2.3.2.4.6.3 1-1 2.3-2.5 5.5-3.4 7.6-.3-2.1-1.4-7.7-2.2-11.3z" class="st7" data-v-03277165="" id="WING_L_copy_8-2"></path>
			<path d="M127.1 74.4c-.1-.1-3.6-2.2-4.1-2.5v7s4 2.3 4.1 2.3c0-.8-.1-6.9 0-6.8z" class="st8" data-v-03277165="" id="WING_L_copy_7-2"></path>
			<path d="M127.1 83.9c-.1-.1-4-2.5-4.1-2.5v6.2s4 2.4 4.1 2.3c0-.7-.1-6.2 0-6z" class="st8" data-v-03277165="" id="WING_L_copy_9-2"></path>
			<path d="M127.1 92.6l-4.7-2.7c-1.1 1.5-2.2 2.9-3.4 4.3 0 0 8 4.5 8.1 4.5v-6.1z" class="st8" data-v-03277165="" id="WING_L_copy_12-2"></path>
		</g>
	</g>
</svg>
